# xmcd CD database file generated by Grip 3.0.3
#
# Track frame offsets:
#       150
#       16837
#       30575
#       40225
#
# Disc length: 658 seconds
#
# Revision: 1
# Processed by: cddbd v1.4PL0 Copyright (c) Steve Scherf et al.
# Submitted via: Grip 3.0.3
#
DISCID=23029004
DTITLE=Road  Riders - Nashville Vegas
DYEAR=2000
DGENRE=Country
TTITLE0=I already do
TTITLE1=I could love a man like that
TTITLE2=Rub-a-dubbin'
TTITLE3=Rattlesnake blues
EXTD=
EXTT0=
EXTT1=
EXTT2=
EXTT3=
PLAYORDER=
